<svg width="512" height="512" xmlns="http://www.w3.org/2000/svg">

 <g>
  <title>Layer 1</title>
  <path id="svg_1" d="m223.12,460.4l-48.8,-14.16c-5.12,-1.44 -8,-6.8 -6.56,-11.92l109.2,-376.16c1.44,-5.12 6.8,-8 11.92,-6.56l48.8,14.16c5.12,1.44 8,6.8 6.561,11.92l-109.2,376.16c-1.521,5.12 -6.801,8.08 -11.921,6.56zm-91.2,-89.759l34.8,-37.121c3.68,-3.92 3.44,-10.16 -0.64,-13.76l-72.48,-63.76l72.48,-63.76c4.08,-3.6 4.4,-9.84 0.64,-13.76l-34.8,-37.12c-3.6,-3.84 -9.68,-4.08 -13.6,-0.4l-115.28,108c-4.08,3.76 -4.08,10.24 0,14l115.28,108.08c3.92,3.681 10,3.521 13.6,-0.399l0,0zm261.76,0.479l115.28,-108.08c4.08,-3.761 4.08,-10.24 0,-14l-115.28,-108.16c-3.84,-3.6 -9.92,-3.44 -13.6,0.4l-34.8,37.12c-3.681,3.92 -3.44,10.16 0.64,13.76l72.48,63.84l-72.48,63.76c-4.08,3.6 -4.4,9.84 -0.64,13.76l34.8,37.121c3.6,3.92 9.68,4.08 13.6,0.479z" fill="#f2c94c"/>
 </g>
</svg>